# xmcd CD database file
#
# Track frame offsets:
#	150
#	14123
#	29754
#	108772
#	132445
#	141988
#	163195
#	178401
#	184293
#
# Disc length: 2641 seconds
#
# Revision: 0
# Processed by: cddbd v1.5.2PL0 Copyright (c) Steve Scherf et al.
# Submitted via: CDex 1.50Beta5
#
DISCID=8c0a4f09
DTITLE=Gilson Peranzzetta - Rua Marari
DYEAR=1996
DGENRE=Jazz
TTITLE0=Valsa do açu
TTITLE1=Pressão alta
TTITLE2=Miragem
TTITLE3=Luz de cristal
TTITLE4=Escalada
TTITLE5=Abel prazer...
TTITLE6=Como vinho
TTITLE7=Marari
TTITLE8=Valsa do açu
EXTD=YEAR: 1996
EXTT0=
EXTT1=
EXTT2=
EXTT3=
EXTT4=
EXTT5=
EXTT6=
EXTT7=
EXTT8=
PLAYORDER=
